<svg width="1024" height="1024" viewBox="0 0 1024 1024" fill="none" xmlns="http://www.w3.org/2000/svg">
<rect width="1024" height="1024" rx="358.4" fill="white"/>
<g filter="url(#filter0_d_10_14)">
<path d="M771.868 91.1975H822.131L396.132 987.802H345.869L771.868 91.1975Z" fill="#FC3858"/>
<path fill-rule="evenodd" clip-rule="evenodd" d="M763.539 78H843L404.461 1001H325L763.539 78ZM771.868 91.1975H822.131L396.132 987.802H345.869L771.868 91.1975Z" fill="white"/>
</g>
<path fill-rule="evenodd" clip-rule="evenodd" d="M255.586 862.394H406.945L463.865 742.803H395.262V321.819H484.294C525.584 321.819 560.314 329.125 588.486 343.738C607.026 353.355 622.538 366.508 635.024 383.198L693.285 260.79C683.831 253.932 673.844 247.628 663.324 241.877C615.368 215.444 558.164 202.228 491.713 202.228H255.586V862.394Z" fill="#191830"/>
<path fill-rule="evenodd" clip-rule="evenodd" d="M693.285 260.79L635.024 383.198C622.538 366.508 607.026 353.355 588.486 343.738C560.314 329.125 525.584 321.819 484.294 321.819H395.262V742.803H463.865L406.945 862.394H255.586V202.228H491.713C558.164 202.228 615.368 215.444 663.324 241.877C673.844 247.628 683.831 253.932 693.285 260.79Z" fill="#191830"/>
<defs>
<filter id="filter0_d_10_14" x="315" y="68" width="538" height="943" filterUnits="userSpaceOnUse" color-interpolation-filters="sRGB">
<feFlood flood-opacity="0" result="BackgroundImageFix"/>
<feColorMatrix in="SourceAlpha" type="matrix" values="0 0 0 0 0 0 0 0 0 0 0 0 0 0 0 0 0 0 127 0" result="hardAlpha"/>
<feOffset/>
<feGaussianBlur stdDeviation="5"/>
<feComposite in2="hardAlpha" operator="out"/>
<feColorMatrix type="matrix" values="0 0 0 0 0.866667 0 0 0 0 0.866667 0 0 0 0 0.866667 0 0 0 1 0"/>
<feBlend mode="normal" in2="BackgroundImageFix" result="effect1_dropShadow_10_14"/>
<feBlend mode="normal" in="SourceGraphic" in2="effect1_dropShadow_10_14" result="shape"/>
</filter>
</defs>
</svg>
